<mxfile host="app.diagrams.net" agent="Mozilla/5.0 (Windows NT 10.0; Win64; x64) AppleWebKit/537.36 (KHTML, like Gecko) Chrome/130.0.0.0 Safari/537.36" version="24.8.4">
  <diagram name="Page-1" id="ZYGZFaL3S_gZHPuGc6q5">
    <mxGraphModel dx="880" dy="434" grid="1" gridSize="10" guides="1" tooltips="1" connect="1" arrows="1" fold="1" page="1" pageScale="1" pageWidth="850" pageHeight="1100" math="0" shadow="0">
      <root>
        <mxCell id="0" />
        <mxCell id="1" parent="0" />
        <mxCell id="gI2qoyvRyMtctuEU26Qf-3" value="" style="ellipse;html=1;shape=startState;fillColor=#000000;strokeColor=#ff0000;" vertex="1" parent="1">
          <mxGeometry x="425" y="10" width="30" height="30" as="geometry" />
        </mxCell>
        <mxCell id="gI2qoyvRyMtctuEU26Qf-4" value="" style="edgeStyle=orthogonalEdgeStyle;html=1;verticalAlign=bottom;endArrow=open;endSize=8;strokeColor=#ff0000;rounded=0;" edge="1" source="gI2qoyvRyMtctuEU26Qf-3" parent="1">
          <mxGeometry relative="1" as="geometry">
            <mxPoint x="440" y="100" as="targetPoint" />
          </mxGeometry>
        </mxCell>
        <mxCell id="gI2qoyvRyMtctuEU26Qf-5" value="" style="rounded=1;whiteSpace=wrap;html=1;" vertex="1" parent="1">
          <mxGeometry x="410" y="100" width="60" height="30" as="geometry" />
        </mxCell>
        <mxCell id="gI2qoyvRyMtctuEU26Qf-6" value="Red" style="text;html=1;align=center;verticalAlign=middle;whiteSpace=wrap;rounded=0;" vertex="1" parent="1">
          <mxGeometry x="410" y="100" width="60" height="30" as="geometry" />
        </mxCell>
        <mxCell id="gI2qoyvRyMtctuEU26Qf-7" style="edgeStyle=orthogonalEdgeStyle;rounded=0;orthogonalLoop=1;jettySize=auto;html=1;exitX=0.5;exitY=1;exitDx=0;exitDy=0;" edge="1" parent="1" source="gI2qoyvRyMtctuEU26Qf-6" target="gI2qoyvRyMtctuEU26Qf-6">
          <mxGeometry relative="1" as="geometry" />
        </mxCell>
        <mxCell id="gI2qoyvRyMtctuEU26Qf-8" value="" style="rounded=1;whiteSpace=wrap;html=1;" vertex="1" parent="1">
          <mxGeometry x="400" y="210" width="80" height="30" as="geometry" />
        </mxCell>
        <mxCell id="gI2qoyvRyMtctuEU26Qf-9" value="" style="rounded=1;whiteSpace=wrap;html=1;" vertex="1" parent="1">
          <mxGeometry x="400" y="320" width="80" height="30" as="geometry" />
        </mxCell>
        <mxCell id="gI2qoyvRyMtctuEU26Qf-10" value="Yellow" style="text;html=1;align=center;verticalAlign=middle;whiteSpace=wrap;rounded=0;" vertex="1" parent="1">
          <mxGeometry x="410" y="210" width="60" height="30" as="geometry" />
        </mxCell>
        <mxCell id="gI2qoyvRyMtctuEU26Qf-11" value="Green" style="text;html=1;align=center;verticalAlign=middle;whiteSpace=wrap;rounded=0;" vertex="1" parent="1">
          <mxGeometry x="410" y="320" width="60" height="30" as="geometry" />
        </mxCell>
        <mxCell id="gI2qoyvRyMtctuEU26Qf-12" value="" style="endArrow=classic;html=1;rounded=0;entryX=0.25;entryY=1;entryDx=0;entryDy=0;exitX=0.117;exitY=-0.033;exitDx=0;exitDy=0;exitPerimeter=0;" edge="1" parent="1" source="gI2qoyvRyMtctuEU26Qf-10" target="gI2qoyvRyMtctuEU26Qf-6">
          <mxGeometry width="50" height="50" relative="1" as="geometry">
            <mxPoint x="400" y="250" as="sourcePoint" />
            <mxPoint x="450" y="200" as="targetPoint" />
          </mxGeometry>
        </mxCell>
        <mxCell id="gI2qoyvRyMtctuEU26Qf-13" value="" style="endArrow=classic;html=1;rounded=0;entryX=1;entryY=0;entryDx=0;entryDy=0;exitX=0.75;exitY=1;exitDx=0;exitDy=0;" edge="1" parent="1" source="gI2qoyvRyMtctuEU26Qf-6" target="gI2qoyvRyMtctuEU26Qf-10">
          <mxGeometry width="50" height="50" relative="1" as="geometry">
            <mxPoint x="427" y="219" as="sourcePoint" />
            <mxPoint x="435" y="140" as="targetPoint" />
          </mxGeometry>
        </mxCell>
        <mxCell id="gI2qoyvRyMtctuEU26Qf-14" value="" style="endArrow=classic;html=1;rounded=0;entryX=0;entryY=1;entryDx=0;entryDy=0;exitX=0;exitY=0;exitDx=0;exitDy=0;" edge="1" parent="1" source="gI2qoyvRyMtctuEU26Qf-11" target="gI2qoyvRyMtctuEU26Qf-10">
          <mxGeometry width="50" height="50" relative="1" as="geometry">
            <mxPoint x="437" y="229" as="sourcePoint" />
            <mxPoint x="445" y="150" as="targetPoint" />
          </mxGeometry>
        </mxCell>
        <mxCell id="gI2qoyvRyMtctuEU26Qf-15" value="" style="endArrow=classic;html=1;rounded=0;entryX=1;entryY=0;entryDx=0;entryDy=0;exitX=0.9;exitY=1.033;exitDx=0;exitDy=0;exitPerimeter=0;" edge="1" parent="1" source="gI2qoyvRyMtctuEU26Qf-10" target="gI2qoyvRyMtctuEU26Qf-11">
          <mxGeometry width="50" height="50" relative="1" as="geometry">
            <mxPoint x="447" y="239" as="sourcePoint" />
            <mxPoint x="455" y="160" as="targetPoint" />
          </mxGeometry>
        </mxCell>
        <mxCell id="gI2qoyvRyMtctuEU26Qf-16" value="Timer" style="text;html=1;align=center;verticalAlign=middle;whiteSpace=wrap;rounded=0;" vertex="1" parent="1">
          <mxGeometry x="455" y="160" width="60" height="30" as="geometry" />
        </mxCell>
        <mxCell id="gI2qoyvRyMtctuEU26Qf-17" value="Timer" style="text;html=1;align=center;verticalAlign=middle;whiteSpace=wrap;rounded=0;" vertex="1" parent="1">
          <mxGeometry x="365" y="160" width="60" height="30" as="geometry" />
        </mxCell>
        <mxCell id="gI2qoyvRyMtctuEU26Qf-18" value="Timer" style="text;html=1;align=center;verticalAlign=middle;whiteSpace=wrap;rounded=0;" vertex="1" parent="1">
          <mxGeometry x="455" y="270" width="60" height="30" as="geometry" />
        </mxCell>
        <mxCell id="gI2qoyvRyMtctuEU26Qf-19" value="Timer" style="text;html=1;align=center;verticalAlign=middle;whiteSpace=wrap;rounded=0;" vertex="1" parent="1">
          <mxGeometry x="360" y="270" width="60" height="30" as="geometry" />
        </mxCell>
      </root>
    </mxGraphModel>
  </diagram>
</mxfile>
